<svg id="svg" version="1.1" xmlns="http://www.w3.org/2000/svg" xmlns:xlink="http://www.w3.org/1999/xlink" width="400" height="447.8260869565217" viewBox="0, 0, 400,447.8260869565217"><g id="svgg"><path id="path0" d="M196.085 88.102 C 189.924 100.783,189.731 115.294,195.652 120.652 C 202.757 127.082,202.162 160.870,194.944 160.870 C 188.377 160.870,180.435 152.326,180.435 145.262 C 180.435 136.133,153.740 112.926,148.857 117.809 C 141.665 125.002,160.230 156.522,171.658 156.522 C 186.097 156.522,204.527 194.258,193.436 201.113 C 185.913 205.762,150.352 185.604,144.442 173.341 C 140.403 164.961,117.723 148.928,114.501 152.174 C 111.901 154.793,118.820 178.847,123.602 183.816 C 128.899 189.319,141.899 191.271,144.561 186.963 C 145.304 185.762,152.383 189.925,160.450 196.309 C 168.453 202.641,179.158 210.478,184.239 213.724 L 193.478 219.627 193.478 235.723 C 193.478 256.846,192.623 258.703,182.920 258.662 C 171.319 258.614,167.619 255.753,172.369 250.505 C 176.962 245.430,177.148 237.264,172.812 231.074 C 169.308 226.071,145.662 212.309,143.788 214.183 C 142.797 215.174,146.912 233.664,151.157 247.283 C 153.260 254.031,150.384 253.512,135.048 244.376 C 118.652 234.610,116.337 231.797,116.169 221.438 C 116.017 212.039,111.020 205.558,96.196 195.528 L 86.957 189.278 86.957 199.749 C 86.957 218.265,94.506 230.435,105.993 230.435 C 109.679 230.435,128.261 247.233,128.261 250.565 C 128.261 251.384,123.485 254.108,117.647 256.619 C 111.809 259.130,104.321 264.016,101.007 267.475 L 94.980 273.765 101.295 276.282 C 121.262 284.241,139.130 278.549,139.130 264.229 C 139.130 257.608,139.130 257.609,150.663 262.804 C 158.178 266.189,171.655 270.598,188.587 275.210 C 190.378 275.698,191.304 280.412,191.304 289.038 L 191.304 302.126 101.630 302.718 C 52.310 303.044,97.065 303.310,201.087 303.310 C 305.109 303.310,349.864 303.044,300.543 302.718 L 210.870 302.126 210.870 290.270 C 210.870 276.842,212.311 275.399,228.261 272.862 C 233.641 272.007,242.325 269.447,247.559 267.175 C 260.544 261.537,266.080 261.684,264.526 267.627 C 261.318 279.896,289.839 287.554,305.695 278.681 C 310.016 276.262,291.379 259.535,282.089 257.495 C 278.788 256.769,276.087 255.068,276.087 253.714 C 276.087 249.002,294.250 232.609,299.469 232.609 C 307.712 232.609,314.530 223.232,316.240 209.545 C 318.058 194.991,317.416 194.113,308.161 198.505 C 293.690 205.372,286.957 214.759,286.957 228.065 C 286.957 235.178,283.697 238.367,266.749 247.836 C 251.778 256.200,250.721 255.673,255.017 241.989 C 258.592 230.601,261.210 215.217,259.574 215.217 C 256.776 215.217,237.433 226.279,233.152 230.327 C 227.316 235.846,226.652 246.793,231.809 252.491 C 235.130 256.161,234.983 256.553,229.493 258.640 C 213.373 264.769,208.696 260.000,208.696 237.436 C 208.696 221.149,209.306 220.131,223.913 212.044 C 228.098 209.727,236.752 203.578,243.144 198.379 C 254.051 189.509,255.357 189.015,264.344 190.363 C 280.516 192.788,284.796 187.971,290.259 161.197 C 292.906 148.224,266.891 159.900,258.546 175.430 C 252.386 186.893,229.468 200.452,215.571 200.856 L 207.609 201.087 206.940 189.332 C 206.091 174.420,220.993 156.522,234.256 156.522 C 244.196 156.522,251.083 149.060,254.092 135.031 C 257.921 117.175,257.885 117.126,245.451 123.124 C 230.042 130.558,223.913 137.215,223.913 146.517 C 223.913 154.546,217.953 160.870,210.386 160.870 C 204.987 160.870,204.631 127.431,209.967 121.536 C 216.282 114.557,216.288 101.968,209.980 89.520 C 203.021 75.787,202.113 75.694,196.085 88.102 M34.026 337.803 C 28.988 344.409,28.560 345.903,31.396 346.992 C 35.701 348.644,35.771 355.169,31.522 358.696 C 28.945 360.835,28.261 367.044,28.261 388.310 L 28.261 415.217 55.435 415.217 L 82.609 415.217 82.609 377.250 C 82.609 332.828,83.745 334.783,57.933 334.783 C 47.861 334.783,41.358 333.856,40.855 332.348 C 40.409 331.009,37.336 333.464,34.026 337.803 M100.302 335.979 C 94.104 343.859,94.442 347.039,101.630 348.483 C 107.283 349.619,107.626 350.375,107.923 362.342 C 108.132 370.771,110.130 379.197,113.901 387.562 C 121.786 405.050,119.939 413.025,107.997 413.056 C 94.663 413.090,77.740 424.116,82.979 429.356 C 84.758 431.135,121.581 424.107,128.075 420.748 C 158.581 404.973,173.602 350.822,151.491 336.334 C 146.473 333.046,146.049 333.179,141.388 339.482 L 136.524 346.061 143.592 351.962 C 160.928 366.435,148.732 410.870,127.423 410.870 C 127.043 410.870,126.162 402.786,125.465 392.907 C 124.768 383.027,123.091 372.034,121.739 368.477 C 120.386 364.920,118.610 356.722,117.792 350.260 C 116.716 341.761,115.102 337.845,111.957 336.103 C 109.565 334.779,107.011 332.879,106.280 331.882 C 105.550 330.884,102.859 332.728,100.302 335.979 M222.799 340.536 C 217.109 348.112,217.349 350.619,223.913 352.200 C 229.124 353.455,229.342 354.177,229.202 369.689 C 228.985 393.726,224.063 401.977,206.682 407.445 C 185.548 414.092,182.593 421.171,202.070 418.493 C 209.645 417.451,213.810 415.674,215.329 412.835 C 216.547 410.558,218.884 408.696,220.522 408.696 C 227.665 408.696,234.783 390.329,234.783 371.896 L 234.783 354.348 251.291 354.348 L 267.799 354.348 267.052 385.664 C 266.640 402.900,267.148 416.458,268.181 415.819 C 274.433 411.947,277.891 395.826,278.337 368.478 C 278.938 331.615,279.178 333.279,273.940 338.019 C 269.069 342.427,236.533 341.751,231.928 337.145 C 228.547 333.764,227.627 334.105,222.799 340.536 M294.902 338.758 C 288.701 345.610,290.254 351.797,298.370 352.580 C 305.201 353.238,305.421 353.566,305.023 362.500 C 304.508 374.067,304.585 374.051,313.115 360.758 C 321.735 347.324,320.079 339.130,308.742 339.130 C 305.130 339.130,302.174 338.152,302.174 336.957 C 302.174 333.568,298.855 334.391,294.902 338.758 M330.677 342.134 C 322.085 351.279,325.553 354.348,344.477 354.348 C 360.157 354.348,361.159 356.077,360.407 381.843 L 359.783 403.261 340.329 404.348 C 321.117 405.421,320.824 405.522,316.759 412.500 L 312.643 419.565 339.859 419.565 C 366.672 419.565,367.143 419.480,371.581 413.837 C 377.299 406.569,377.265 404.348,371.436 404.348 C 367.099 404.348,366.879 403.579,368.174 392.935 C 374.170 343.655,373.693 341.304,357.709 341.304 C 351.233 341.304,343.535 340.392,340.601 339.276 C 336.282 337.634,334.393 338.178,330.677 342.134 M68.142 350.572 C 71.376 352.937,71.810 356.628,71.274 377.202 L 70.652 401.087 55.435 401.087 L 40.217 401.087 39.596 377.314 C 39.255 364.238,39.469 352.255,40.072 350.683 C 41.509 346.936,63.053 346.851,68.142 350.572 " stroke="none" fill="#000000" fill-rule="evenodd"></path></g></svg>